<?xml version="1.0" encoding="utf-8"?>
<!-- Generator: Adobe Illustrator 27.5.0, SVG Export Plug-In . SVG Version: 6.00 Build 0)  -->
<svg version="1.1" id="LOGO" xmlns="http://www.w3.org/2000/svg" xmlns:xlink="http://www.w3.org/1999/xlink" x="0px" y="0px"
	 viewBox="0 0 242 55" style="enable-background:new 0 0 242 55;" xml:space="preserve">
<style type="text/css">
	.st0{fill:#010202;}
</style>
<g>
	<path class="st0" d="M58.3,7.2V1H1v6.2h25.1v46.9h7.1V7.2H58.3L58.3,7.2z M64.1,54.1h47.4v-6.2H71.2V1h-7.1V54.1L64.1,54.1z
		 M152.6,54.1l22.9-46.7v46.7h6.9V1h-10.7l-22,44.7L127.8,1h-11v53.1h6.9V7.4l23,46.7L152.6,54.1L152.6,54.1z M195.9,31.9h22.9
		l14.9,22.3h8.1l-15.3-22.6c8.6-1.3,14.2-6.6,14.2-15.1C240.8,6.3,233.1,1,222,1h-33.2v53.1h7.1L195.9,31.9L195.9,31.9z M195.9,25.7
		V7.2h25.8c7.6,0,12.2,3.3,12.2,9.2s-4.7,9.3-12.2,9.3H195.9L195.9,25.7z"/>
</g>
</svg>
