<?xml version="1.0" encoding="utf-8"?>
<!-- Generator: Adobe Illustrator 27.2.0, SVG Export Plug-In . SVG Version: 6.00 Build 0)  -->
<svg version="1.1" id="LOGO" xmlns="http://www.w3.org/2000/svg" xmlns:xlink="http://www.w3.org/1999/xlink" x="0px" y="0px"
	 viewBox="0 0 281 93" style="enable-background:new 0 0 281 93;" xml:space="preserve">
<style type="text/css">
	.st0{fill:#010202;}
</style>
<g>
	<path class="st0" d="M77.14,26.66v-6.22H19.86v6.22h25.09v46.92h7.1V26.66H77.14L77.14,26.66z M82.91,73.58h47.43v-6.22H90.01
		V20.44h-7.1V73.58L82.91,73.58z M171.49,73.58l22.94-46.69v46.69h6.88V20.44h-10.73l-21.98,44.7l-21.9-44.7h-11.03v53.13h6.88
		V26.88l23.01,46.69H171.49L171.49,73.58z M214.77,51.3h22.94l14.95,22.27h8.14l-15.32-22.64c8.58-1.33,14.21-6.59,14.21-15.1
		c0-10.14-7.7-15.39-18.8-15.39h-33.23v53.13h7.1V51.3L214.77,51.3z M214.77,45.16V26.59h25.75c7.55,0,12.21,3.26,12.21,9.25
		s-4.66,9.32-12.21,9.32H214.77L214.77,45.16z"/>
</g>
</svg>
