<?xml version="1.0" encoding="utf-8"?>
<!-- Generator: $$$/GeneralStr/196=Adobe Illustrator 27.6.0, SVG Export Plug-In . SVG Version: 6.00 Build 0)  -->
<svg version="1.1" id="LOGO" xmlns="http://www.w3.org/2000/svg" xmlns:xlink="http://www.w3.org/1999/xlink" x="0px" y="0px"
	 viewBox="0 0 240.8 53.2" style="enable-background:new 0 0 240.8 53.2;" xml:space="preserve">
<style type="text/css">
	.st0{fill:#010202;}
</style>
<g>
	<path class="st0" d="M57.3,6.2V0H0v6.2h25.1v46.9h7.1V6.2H57.3L57.3,6.2z M63.1,53.1h47.4v-6.2H70.2V0h-7.1V53.1L63.1,53.1z
		 M151.6,53.1l22.9-46.7v46.7h6.9V0h-10.7l-22,44.7L126.8,0h-11v53.1h6.9V6.4l23,46.7L151.6,53.1L151.6,53.1z M194.9,30.9h22.9
		l14.9,22.3h8.1l-15.3-22.6c8.6-1.3,14.2-6.6,14.2-15.1C239.8,5.3,232.1,0,221,0h-33.2v53.1h7.1L194.9,30.9L194.9,30.9z M194.9,24.7
		V6.2h25.8c7.6,0,12.2,3.3,12.2,9.2s-4.7,9.3-12.2,9.3H194.9L194.9,24.7z"/>
</g>
</svg>
