<svg xmlns="http://www.w3.org/2000/svg" xmlns:xlink="http://www.w3.org/1999/xlink" width="160" height="60" viewBox="0 0 160 60">
  <defs>
    <clipPath id="clip-affiches">
      <rect width="160" height="60"/>
    </clipPath>
  </defs>
  <g id="affiches" clip-path="url(#clip-affiches)">
    <rect width="160" height="60" fill="#fff"/>
    <g id="Groupe_2273" data-name="Groupe 2273" transform="translate(37 17)">
      <path id="Tracé_186" data-name="Tracé 186" d="M5.01,62.589a4.758,4.758,0,0,0,1.2-.249,2.353,2.353,0,0,0,1.14-.763,1.714,1.714,0,0,0,.343-1.016,1.62,1.62,0,0,0-.879-1.569,5.722,5.722,0,0,0-2.572-.454H0v.279a1.933,1.933,0,0,1,.857.219c.15.111.223.373.223.784v4.869a1.02,1.02,0,0,1-.223.776A1.526,1.526,0,0,1,0,65.692v.283H4.393v-.283a1.714,1.714,0,0,1-.917-.206.986.986,0,0,1-.244-.8V62.64C4.02,62.64,4.612,62.627,5.01,62.589ZM3.232,59.306a.3.3,0,0,1,.171-.3,1.487,1.487,0,0,1,.566-.077,1.286,1.286,0,0,1,1.174.459,2.182,2.182,0,0,1,.3,1.213,1.471,1.471,0,0,1-.626,1.432,3.883,3.883,0,0,1-1.573.227Z" transform="translate(0 -43.567)"/>
      <path id="Tracé_187" data-name="Tracé 187" d="M21.5,63.993,18.559,58.22h-.364l-2.932,6.013a4.826,4.826,0,0,1-.536.926,1.05,1.05,0,0,1-.767.356V65.8h2.692v-.283a2.62,2.62,0,0,1-.673-.064c-.253-.069-.381-.184-.381-.343a1.916,1.916,0,0,1,.176-.617c.056-.133.18-.429.373-.857H19.12l.334.664c.073.15.133.274.176.377a1.213,1.213,0,0,1,.1.39c0,.193-.069.309-.206.356a3.43,3.43,0,0,1-.857.09v.283h4.286V65.51a.857.857,0,0,1-.694-.27A7.38,7.38,0,0,1,21.5,63.993ZM16.36,63.2l1.191-2.546h.111L18.949,63.2Z" transform="translate(-7.977 -43.39)"/>
      <path id="Tracé_188" data-name="Tracé 188" d="M45.5,65.5l-2.8-3.129a3.634,3.634,0,0,0,1.341-.493,1.59,1.59,0,0,0,.81-1.423c0-.806-.531-1.367-1.586-1.68a8.268,8.268,0,0,0-2.143-.227H36.874v.279a2.1,2.1,0,0,1,.857.176.939.939,0,0,1,.291.827V64.7a.982.982,0,0,1-.24.8,1.753,1.753,0,0,1-.913.206v.283h4.457V65.7a1.551,1.551,0,0,1-.93-.223,1.016,1.016,0,0,1-.231-.78V62.554h0l3.073,3.429h2.773v-.266a.973.973,0,0,1-.3-.051.514.514,0,0,1-.21-.167ZM42.026,61.89a4.513,4.513,0,0,1-1.852.3V59.4a.4.4,0,0,1,.167-.36,1.4,1.4,0,0,1,.69-.111,1.427,1.427,0,0,1,1.341.626,2.053,2.053,0,0,1,.21,1.011C42.583,61.255,42.4,61.7,42.026,61.89Z" transform="translate(-21.068 -43.575)"/>
      <path id="Tracé_189" data-name="Tracé 189" d="M59.42,58.837a2.6,2.6,0,0,1,.823.12.647.647,0,0,1,.381.643v5.332a.651.651,0,0,1-.4.669,2.323,2.323,0,0,1-.806.111v.283h4.612v-.283a2.186,2.186,0,0,1-.934-.163.621.621,0,0,1-.309-.617V59.6a.643.643,0,0,1,.386-.656,2.8,2.8,0,0,1,.857-.116V58.55H59.42Z" transform="translate(-33.953 -43.578)"/>
      <path id="Tracé_190" data-name="Tracé 190" d="M77.469,62.059a3.943,3.943,0,0,0-1.037-.609l-.973-.429a8.843,8.843,0,0,1-1.573-.771.964.964,0,0,1,.026-1.517,1.624,1.624,0,0,1,1.037-.3,2.25,2.25,0,0,1,1.582.6,3.24,3.24,0,0,1,.909,1.431h.369V58.09h-.394a.857.857,0,0,1-.133.279.364.364,0,0,1-.3.1,5.62,5.62,0,0,1-.763-.184,5.31,5.31,0,0,0-1.384-.18,2.79,2.79,0,0,0-2.087.7,2.117,2.117,0,0,0-.681,1.5,1.714,1.714,0,0,0,.514,1.286,5.572,5.572,0,0,0,1.766,1.046l.857.351a5.01,5.01,0,0,1,1.037.531.982.982,0,0,1,.39.806,1.161,1.161,0,0,1-.373.81,1.689,1.689,0,0,1-1.252.381A2.5,2.5,0,0,1,73.4,64.96a3.206,3.206,0,0,1-1.02-1.792H72V65.89h.377a.918.918,0,0,1,.133-.283.343.343,0,0,1,.279-.1h.141l.171.034.253.081a4.714,4.714,0,0,0,.793.189,5.079,5.079,0,0,0,.8.064,3.538,3.538,0,0,0,2.486-.737,2.143,2.143,0,0,0,.776-1.569A1.92,1.92,0,0,0,77.469,62.059Z" transform="translate(-41.141 -43.316)"/>
      <path id="Tracé_191" data-name="Tracé 191" d="M86.977,58.837a2.6,2.6,0,0,1,.823.12.647.647,0,0,1,.364.643v5.332a.656.656,0,0,1-.4.669,2.3,2.3,0,0,1-.8.111v.283h4.607v-.283a2.143,2.143,0,0,1-.926-.154.621.621,0,0,1-.309-.617V59.6a.643.643,0,0,1,.386-.656,2.734,2.734,0,0,1,.857-.116V58.55h-4.6Z" transform="translate(-49.689 -43.578)"/>
      <path id="Tracé_192" data-name="Tracé 192" d="M105.689,65.239a4.573,4.573,0,0,1-2.062.429,2.087,2.087,0,0,1-.887-.124.51.51,0,0,1-.214-.476V62.384a2.409,2.409,0,0,1,1.56.381,2.143,2.143,0,0,1,.579,1.324H105V60.379h-.334a2.4,2.4,0,0,1-.613,1.286,2.341,2.341,0,0,1-1.526.343v-2.55a.467.467,0,0,1,.163-.429,1.783,1.783,0,0,1,.771-.1,4.361,4.361,0,0,1,2.19.39,2.259,2.259,0,0,1,.857,1.457h.339v-2.2H99.23v.279a2.31,2.31,0,0,1,.789.129.63.63,0,0,1,.4.634v5.332a.634.634,0,0,1-.369.643,2.092,2.092,0,0,1-.8.129V66h7.715l.536-2.289h-.369A3.54,3.54,0,0,1,105.689,65.239Z" transform="translate(-56.701 -43.59)"/>
      <path id="Tracé_193" data-name="Tracé 193" d="M125.492,58.849a1.577,1.577,0,0,1,.973.287,1.08,1.08,0,0,1,.244.8V63.16h-.064l-4.535-4.59h-2.794v.279a.857.857,0,0,1,.386.124c.094.069.343.287.746.664v5.2a.887.887,0,0,1-.21.643,1.436,1.436,0,0,1-.947.231V66h3v-.283a1.384,1.384,0,0,1-1.08-.364,1.187,1.187,0,0,1-.167-.72V60.344h.09l5.8,5.876h.377v-6.5c0-.334.069-.549.21-.647a2.143,2.143,0,0,1,.827-.227V58.57h-2.833Z" transform="translate(-68.163 -43.59)"/>
      <path id="Tracé_194" data-name="Tracé 194" d="M148.012,58.849a1.577,1.577,0,0,1,.973.287,1.08,1.08,0,0,1,.244.8V63.16h-.051l-4.547-4.59h-2.794v.279a.857.857,0,0,1,.386.124c.094.069.343.287.746.664v5.2a.857.857,0,0,1-.214.643,1.419,1.419,0,0,1-.943.231V66h3v-.283a1.393,1.393,0,0,1-1.084-.364,1.187,1.187,0,0,1-.167-.72V60.344h.09l5.8,5.876h.369v-6.5c0-.334.069-.549.21-.647a2.143,2.143,0,0,1,.827-.227V58.57h-2.833Z" transform="translate(-81.031 -43.59)"/>
      <path id="Tracé_195" data-name="Tracé 195" d="M170.8,65.239a4.573,4.573,0,0,1-2.062.429,2.087,2.087,0,0,1-.887-.124.51.51,0,0,1-.214-.476V62.384a2.409,2.409,0,0,1,1.56.381,2.143,2.143,0,0,1,.57,1.324h.334V60.379h-.334a2.4,2.4,0,0,1-.613,1.286,2.34,2.34,0,0,1-1.526.343v-2.55a.467.467,0,0,1,.163-.429,1.783,1.783,0,0,1,.771-.1,4.361,4.361,0,0,1,2.19.39,2.259,2.259,0,0,1,.857,1.457h.326v-2.2H164.34v.279a2.31,2.31,0,0,1,.789.129.626.626,0,0,1,.381.643v5.323a.639.639,0,0,1-.364.643,2.143,2.143,0,0,1-.806.129V66h7.715l.536-2.289h-.369a3.541,3.541,0,0,1-1.423,1.53Z" transform="translate(-93.905 -43.59)"/>
      <path id="Tracé_196" data-name="Tracé 196" d="M190.817,62.059a3.942,3.942,0,0,0-1.037-.609l-.973-.429a8.842,8.842,0,0,1-1.573-.771.964.964,0,0,1,.026-1.517,1.62,1.62,0,0,1,1.033-.3,2.272,2.272,0,0,1,1.586.6,3.24,3.24,0,0,1,.9,1.453h.369V58.09h-.369a.857.857,0,0,1-.133.279.369.369,0,0,1-.3.1,5.787,5.787,0,0,1-.763-.184,5.255,5.255,0,0,0-1.38-.18,2.79,2.79,0,0,0-2.087.7,2.117,2.117,0,0,0-.681,1.5,1.714,1.714,0,0,0,.514,1.286,5.572,5.572,0,0,0,1.766,1.046l.857.351a5.259,5.259,0,0,1,1.037.531.994.994,0,0,1,.39.806,1.162,1.162,0,0,1-.373.81,1.689,1.689,0,0,1-1.252.381,2.524,2.524,0,0,1-1.611-.557,3.227,3.227,0,0,1-1.016-1.792h-.381V65.89h.381a.918.918,0,0,1,.133-.283.343.343,0,0,1,.279-.1h.141l.167.034.257.081a4.713,4.713,0,0,0,.793.189,5.078,5.078,0,0,0,.8.064,3.538,3.538,0,0,0,2.486-.737,2.173,2.173,0,0,0,.776-1.569A1.933,1.933,0,0,0,190.817,62.059Z" transform="translate(-105.921 -43.316)"/>
      <path id="Tracé_197" data-name="Tracé 197" d="M5.069,37.231a5.43,5.43,0,0,1-1.251-.116c-.471-.133-.707-.343-.707-.634a3.536,3.536,0,0,1,.326-1.144c.1-.249.334-.776.69-1.582h5.49l.621,1.217c.137.274.244.506.326.7a2.314,2.314,0,0,1,.2.733c0,.351-.124.574-.373.66a6.686,6.686,0,0,1-1.573.167v.519h7.908v-.519a1.569,1.569,0,0,1-1.286-.5,13.9,13.9,0,0,1-1.372-2.323L8.618,23.7H7.923L2.493,34.843A9,9,0,0,1,1.5,36.558a1.942,1.942,0,0,1-1.419.673v.519H5.069Zm1.633-9h.2l2.353,4.715H4.495Z" transform="translate(-0.046 -23.665)"/>
      <path id="Tracé_198" data-name="Tracé 198" d="M88.195,26.324a2.036,2.036,0,0,0,1.346.459,2.006,2.006,0,0,0,1.329-.463,1.4,1.4,0,0,0,0-2.237,2.006,2.006,0,0,0-1.329-.463,2.036,2.036,0,0,0-1.346.463,1.41,1.41,0,0,0,0,2.237Z" transform="translate(-50.08 -23.618)"/>
      <path id="Tracé_199" data-name="Tracé 199" d="M89.795,42.33V34.59H85.08v.484a2.04,2.04,0,0,1,.99.339,1.119,1.119,0,0,1,.253.857v6a1.123,1.123,0,0,1-.36.964,2.032,2.032,0,0,1-.883.27v.489h5.846v-.51a2.074,2.074,0,0,1-.9-.3C89.872,43.059,89.795,42.772,89.795,42.33Z" transform="translate(-48.615 -29.888)"/>
      <path id="Tracé_200" data-name="Tracé 200" d="M101.571,42.536a5.37,5.37,0,0,0,3.857,1.406,5.91,5.91,0,0,0,1.8-.27,6.15,6.15,0,0,0,2.794-1.9l-.454-.351a4.788,4.788,0,0,1-1,.767,3.489,3.489,0,0,1-1.667.381,2.846,2.846,0,0,1-2.447-1.286,5.443,5.443,0,0,1-.9-3.206,5.688,5.688,0,0,1,.476-2.383,1.65,1.65,0,0,1,1.612-1.037,1.286,1.286,0,0,1,.7.2.819.819,0,0,1,.3.737v.639a1.166,1.166,0,0,0,.66,1.153,1.714,1.714,0,0,0,.81.18,1.667,1.667,0,0,0,1.14-.39,1.17,1.17,0,0,0,.429-.913,1.835,1.835,0,0,0-1.131-1.612A5.379,5.379,0,0,0,105.883,34a5.882,5.882,0,0,0-4.222,1.5,4.809,4.809,0,0,0-1.582,3.626,4.513,4.513,0,0,0,1.492,3.412Z" transform="translate(-57.186 -29.549)"/>
      <path id="Tracé_201" data-name="Tracé 201" d="M132.393,37.332a2.053,2.053,0,0,1-.9.3v.489h5.743v-.489a2.267,2.267,0,0,1-.939-.334,1.11,1.11,0,0,1-.279-.9V31.486a2.71,2.71,0,0,0-.921-2.323,3.8,3.8,0,0,0-2.327-.677,4.157,4.157,0,0,0-1.869.429,6,6,0,0,0-1.582,1.17V24.35H124.61v.489a1.817,1.817,0,0,1,1.037.326,1.14,1.14,0,0,1,.266.857V36.4a1.1,1.1,0,0,1-.317.93,2.01,2.01,0,0,1-.986.3v.489h5.885v-.489a2.075,2.075,0,0,1-.9-.3,1.125,1.125,0,0,1-.236-.857V31.028c0-.12.223-.343.673-.669a2.246,2.246,0,0,1,1.286-.489,1.123,1.123,0,0,1,1.136.63,2.5,2.5,0,0,1,.167,1.041v4.937C132.633,36.921,132.552,37.208,132.393,37.332Z" transform="translate(-71.203 -24.036)"/>
      <path id="Tracé_202" data-name="Tracé 202" d="M156.212,42.725a5.525,5.525,0,0,0,3.382,1.183,6,6,0,0,0,2.224-.386,6.172,6.172,0,0,0,2.627-2.143l-.561-.287a7.252,7.252,0,0,1-1.157.9,3.2,3.2,0,0,1-1.629.429,2.572,2.572,0,0,1-2.524-1.68,6.338,6.338,0,0,1-.48-2.143h6.245a5.524,5.524,0,0,0-.081-.806,4.916,4.916,0,0,0-.6-1.83,3.887,3.887,0,0,0-1.637-1.462,5.04,5.04,0,0,0-2.272-.527,5.349,5.349,0,0,0-3.617,1.286,4.56,4.56,0,0,0-1.5,3.647A4.452,4.452,0,0,0,156.212,42.725Zm2.224-7.286a1.286,1.286,0,0,1,1.311-.823,1.217,1.217,0,0,1,1.247.716,7.236,7.236,0,0,1,.334,2.516h-3.3a6.978,6.978,0,0,1,.4-2.387Z" transform="translate(-88.356 -29.537)"/>
      <path id="Tracé_203" data-name="Tracé 203" d="M184.082,43.864a5.5,5.5,0,0,0,.986.086,4.021,4.021,0,0,0,2.953-.981,2.944,2.944,0,0,0,.986-2.113,2.452,2.452,0,0,0-.956-1.959,7.119,7.119,0,0,0-1.813-.964l-1.337-.54a3.832,3.832,0,0,1-1.316-.754,1.046,1.046,0,0,1-.356-.716,1.123,1.123,0,0,1,.4-.819,1.714,1.714,0,0,1,1.213-.377,2.884,2.884,0,0,1,1.839.626,3.476,3.476,0,0,1,1.132,1.654h.621V34.049H187.9a.763.763,0,0,1-.21.291.639.639,0,0,1-.429.107,6.832,6.832,0,0,1-1.084-.214,7.008,7.008,0,0,0-1.65-.214,4.089,4.089,0,0,0-2.769.857,2.627,2.627,0,0,0-.99,2.044,2.319,2.319,0,0,0,.63,1.62,5.666,5.666,0,0,0,2.057,1.286l1.813.737a3.541,3.541,0,0,1,.857.429,1.166,1.166,0,0,1,.476.934,1.127,1.127,0,0,1-.429.93,2.207,2.207,0,0,1-1.384.351,3.763,3.763,0,0,1-2.006-.6,3.176,3.176,0,0,1-1.337-2.066h-.681v3.373h.587a1.915,1.915,0,0,1,.339-.429.51.51,0,0,1,.351-.137h.137l.283.081.429.12A12.313,12.313,0,0,0,184.082,43.864Z" transform="translate(-103.287 -29.557)"/>
      <path id="Tracé_204" data-name="Tracé 204" d="M63.42,29.4h1.41v6.626a1.1,1.1,0,0,1-.33.956,2.2,2.2,0,0,1-1.08.279v.489h6.793v-.489a3.857,3.857,0,0,1-1.616-.309c-.244-.159-.364-.591-.364-1.286V29.4h2.143v-.9H68.233V25.871a1.7,1.7,0,0,1,.321-1.243,1.333,1.333,0,0,1,.921-.291,1.457,1.457,0,0,1,.463.073.3.3,0,0,1,.219.317,1.5,1.5,0,0,1-.27.454,1.222,1.222,0,0,0-.27.711.939.939,0,0,0,.429.763,1.594,1.594,0,0,0,1,.321,1.714,1.714,0,0,0,1.127-.351,1.123,1.123,0,0,0,.429-.913A1.646,1.646,0,0,0,71.58,24.26a5.062,5.062,0,0,0-2.464-.553q-2.73,0-3.75,1.714a4.6,4.6,0,0,0-.536,2.34v.754H63.42Z" transform="translate(-36.238 -23.667)"/>
      <path id="Tracé_205" data-name="Tracé 205" d="M48,25.97a1.712,1.712,0,0,1,.321-1.247,1.333,1.333,0,0,1,.921-.287,1.457,1.457,0,0,1,.463.069.3.3,0,0,1,.214.321,1.444,1.444,0,0,1-.266.45,1.234,1.234,0,0,0-.27.711.943.943,0,0,0,.429.767,1.62,1.62,0,0,0,1,.317,1.714,1.714,0,0,0,1.127-.347,1.123,1.123,0,0,0,.429-.917,1.65,1.65,0,0,0-1.011-1.457A5.062,5.062,0,0,0,48.9,23.8q-2.73,0-3.75,1.714a4.586,4.586,0,0,0-.536,2.336v.75H43.19v.9H44.6v6.635a1.114,1.114,0,0,1-.33.956,2.246,2.246,0,0,1-1.08.279v.484h6.776v-.484a3.857,3.857,0,0,1-1.616-.309c-.244-.159-.364-.591-.364-1.286V29.5h2.143v-.9H47.986Z" transform="translate(-24.679 -23.719)"/>
    </g>
  </g>
</svg>
