<svg xmlns="http://www.w3.org/2000/svg" xmlns:xlink="http://www.w3.org/1999/xlink" width="160" height="60" viewBox="0 0 160 60">
  <defs>
    <clipPath id="clip-bfm">
      <rect width="160" height="60"/>
    </clipPath>
  </defs>
  <g id="bfm" clip-path="url(#clip-bfm)">
    <rect width="160" height="60" fill="#fff"/>
    <g id="layer1" transform="translate(57 11)">
      <path id="path3403" d="M1170.932,717.566l-5.817-.023v5.817h5.817Z" transform="translate(-1128.481 -685.36)"/>
      <path id="path3429" d="M36.067-197.038l.036-14.191h4.064l4.062,14.191h6.449l5.748-19.206H50.5l-2.934,11.353-3.01-11.353H25.689v5.015h4.575l.042,14.191Zm-7.919-20.734a6.481,6.481,0,0,0,3.887-1.837,5.633,5.633,0,0,0,1.1-1.777v3.573h4.986l.079-6.5h4.59v-4.025H38.2v-2.472h6.978l.02,13h4.843v-10.5l2.921,10.5h3.766l2.913-10.469v10.469h4.776v-17.225H57.152l-2.309,9.826-2.361-9.826H33.134v9.728a4.242,4.242,0,0,0-2.382-2.033,2.748,2.748,0,0,1,.283-.211,3.546,3.546,0,0,0,1.575-3.341,3.968,3.968,0,0,0-1.112-2.764,4.768,4.768,0,0,0-2.6-1.28,3.087,3.087,0,0,0-.311-.064c-.1-.01-.276-.034-.276-.034H18.241v17.225c.089.068,9.058.109,9.908.041ZM23.428-222v-3.03h1.678c.97,0,1.79.019,1.943.045a1.353,1.353,0,0,1,1.073.758,1.466,1.466,0,0,1,.086.683,1.455,1.455,0,0,1-.1.713,1.5,1.5,0,0,1-1.374.818c-.409.045-3.268.056-3.309.013Zm0-8.807h1.548c1.736,0,1.96.026,2.307.269a.89.89,0,0,1,.394.835,1.22,1.22,0,0,1-.293.9c-.377.377-.6.414-2.461.415h-1.5Z" transform="translate(-18.24 235.038)"/>
    </g>
  </g>
</svg>
