<svg xmlns="http://www.w3.org/2000/svg" xmlns:xlink="http://www.w3.org/1999/xlink" width="160" height="60" viewBox="0 0 160 60">
  <defs>
    <clipPath id="clip-lepoint">
      <rect width="160" height="60"/>
    </clipPath>
  </defs>
  <g id="lepoint" clip-path="url(#clip-lepoint)">
    <rect width="160" height="60" fill="#fff"/>
    <g id="le-point-logo-vector" transform="translate(32 20)">
      <path id="Tracé_178" data-name="Tracé 178" d="M266.767,217.335a2.567,2.567,0,1,0-2.567-2.567,2.577,2.577,0,0,0,2.567,2.567" transform="translate(-200.342 -212.2)"/>
      <path id="Tracé_179" data-name="Tracé 179" d="M416.391,238.929c-.129.016-.371.081-.388.081a5.684,5.684,0,0,1-1.033.081c-1.195,0-1.6-.614-1.6-2.325V231.34h3v-3.132h-3.019V223.8l-4.44,1.5v2.906H406.3v1.55h2.228a.33.33,0,0,1,.307.307v7.007c0,3.1.775,5.167,4.876,5.167a14.422,14.422,0,0,0,2.2-.194s.291-.032.484-.065v-3.052Z" transform="translate(-319.498 -221.927)"/>
      <path id="Tracé_180" data-name="Tracé 180" d="M169.1,249.2c-4.359,0-7.3,2.89-7.3,7.185,0,4.279,2.939,7.169,7.3,7.169s7.3-2.874,7.3-7.169-2.939-7.185-7.3-7.185m0,10.931c-2.5,0-2.745-2.906-2.745-3.762s.242-3.778,2.745-3.778,2.745,2.922,2.745,3.778c0,.872-.258,3.762-2.745,3.762" transform="translate(-114.475 -243.226)"/>
      <path id="Tracé_181" data-name="Tracé 181" d="M263.023,263.274a.33.33,0,0,1-.307-.307V251.1H256.5v1.55h1.356a.318.318,0,0,1,.307.307v10.011h0a.318.318,0,0,1-.307.307H256.5v1.55h7.879v-1.55Z" transform="translate(-193.885 -244.819)"/>
      <path id="Tracé_182" data-name="Tracé 182" d="M322.861,261.374h0v-6.668c0-2.664-1.259-5.506-4.876-5.506a4.673,4.673,0,0,0-4.263,2.26l-.129.21v-1.857h0a.313.313,0,0,0-.291-.291h-5.6v1.55h1.356a.343.343,0,0,1,.307.291v11.884h4.618V256.9c0-2.777.84-3.859,2.47-3.859a1.653,1.653,0,0,1,1.292.614,4.392,4.392,0,0,1,.581,2.632v6.943h6.2v-1.55h-1.372a.315.315,0,0,1-.291-.307" transform="translate(-236.818 -243.226)"/>
      <path id="Tracé_183" data-name="Tracé 183" d="M-39.97,249.3c-4.311,0-6.83,3.181-6.83,7.169,0,4.295,2.971,7.185,7.411,7.185a12.185,12.185,0,0,0,4.763-1,.76.76,0,0,0,.081-.032v-3.358a1.939,1.939,0,0,1-.194.1,9.2,9.2,0,0,1-3.94,1.017c-2,0-3.31-.953-3.568-2.341l-.016-.081h8.751v-.985c0-4.876-2.5-7.669-6.458-7.669m-2.357,5.748v-.081c.1-.92.646-2.567,2.373-2.567a2.227,2.227,0,0,1,2.244,2.26h0a.316.316,0,0,1-.307.388Z" transform="translate(60.444 -243.31)"/>
      <path id="Tracé_184" data-name="Tracé 184" d="M75.375,225H68.4v1.55h1.356a.318.318,0,0,1,.307.307v14.225a.33.33,0,0,1-.307.307H68.4v1.55h7.944v-1.55H74.988a.344.344,0,0,1-.307-.307h0v-4.327h1.55c4.166,0,6.717-2.487,6.717-5.845,0-3.52-2.406-5.91-7.573-5.91m.291,8.331h-.985v-4.908h.985a2.461,2.461,0,1,1,0,4.908" transform="translate(-36.156 -222.933)"/>
      <path id="Tracé_185" data-name="Tracé 185" d="M-119.642,241.463h0a.318.318,0,0,1-.307.307H-125V229.741a.33.33,0,0,1,.307-.307h1.34V227.9H-131.3v1.534h1.34a.343.343,0,0,1,.307.291v13.821a.315.315,0,0,1-.307.291h-1.34v1.534h13.191v-5.248h-1.534v1.34Z" transform="translate(131.3 -225.365)"/>
    </g>
  </g>
</svg>
