<svg xmlns="http://www.w3.org/2000/svg" xmlns:xlink="http://www.w3.org/1999/xlink" width="160" height="60" viewBox="0 0 160 60">
  <defs>
    <clipPath id="clip-obs">
      <rect width="160" height="60"/>
    </clipPath>
  </defs>
  <g id="obs" clip-path="url(#clip-obs)">
    <rect width="160" height="60" fill="#fff"/>
    <path id="Obs_2014_logo" d="M67.452,8.387c0-1.981-2.269-3.055-4.98-3.055-3.387,0-6.64,1.7-6.64,4.792,0,5.279,10.591,4.715,10.591,9.507,0,2.435-2.28,4.139-5.036,4.139a6.113,6.113,0,0,1-2.667-.52,4.607,4.607,0,0,0,.5-1.782,1.9,1.9,0,0,0-1.892-2.114,1.41,1.41,0,0,0-1.383,1.494c0,1.948,2.391,3.254,5.456,3.254,3.6,0,7.282-1.649,7.282-5.467,0-5.9-10.4-5.467-10.4-9.4,0-2.3,2.391-3.519,4.206-3.519a5.365,5.365,0,0,1,2.291.376A3.728,3.728,0,0,0,64.4,7.745c0,1.14.6,2.081,1.793,2.081a1.311,1.311,0,0,0,1.262-1.439ZM49.523,14.407c2.645-.232,5.235-1.671,5.235-4.183,0-3.453-3.11-4.681-6.884-4.681h-8.3V5.62c1.251.52,2.247.509,2.2,3.276v11.6c.011,2.933-.941,2.745-2.2,3.265v.089h8.843c4.239,0,6.983-1.306,6.983-4.814,0-3.088-3.243-4.526-5.877-4.626Zm-1.937-.089H44.609V6.007h2.977c2.689,0,4.571,1.572,4.571,4.206S50.276,14.319,47.586,14.319Zm5.146,4.715c0,2.822-1.693,4.449-4.7,4.449h-3.42V14.794h3.42C51.039,14.794,52.733,16.2,52.733,19.033ZM40.26,14.828a9.761,9.761,0,1,0-19.522,0c0,5.877,4.549,9.507,9.761,9.507s9.761-3.63,9.761-9.507Zm-3.309,0c0,5.368-1.771,9.1-6.441,9.153-5.246.066-6.441-3.785-6.441-9.153S25.85,5.354,30.51,5.354C35.291,5.354,36.951,9.46,36.951,14.828ZM18.878,23.836l1.428-6h-.277c-1.383,2.767-3.453,5.523-6.375,5.523H9.814V8.885c0-1.726.476-2.689,1.726-3.209V5.542H5v.1A3.207,3.207,0,0,1,7.058,8.885V20.494a3.106,3.106,0,0,1-1.97,3.221v.122h13.79Zm.133-16.014c0-1.383-.653-2.28-1.815-2.28a1.772,1.772,0,0,0-1.738,1.815,1.8,1.8,0,0,0,.775,1.505,2.341,2.341,0,0,1,1.118,1.892c0,.7-1,1.76-1.284,1.992a5.439,5.439,0,0,1-1.2.664h.62C17.273,13.035,19.011,9.56,19.011,7.822Z" transform="translate(43.16 15.333)"/>
  </g>
</svg>
